<svg width="293" height="99" viewBox="0 0 293 99" fill="none" xmlns="http://www.w3.org/2000/svg">
<path d="M72.2712 61.3848L79.974 65.8528L72.2712 70.3209L64.5684 65.8528L72.2712 61.3848Z" fill="#FA693A"/>
<path d="M72.2636 70.3062L72.2552 79.2277L64.5439 74.7743L64.5524 65.8528L72.2636 70.3062Z" fill="#AD4929"/>
<path d="M72.1982 70.3061L79.9095 65.8528L79.9179 74.7742L72.2066 79.2276L72.1982 70.3061Z" fill="#5A28AD"/>
<path d="M49.4245 39.4617L57.1273 43.9297L49.4245 48.3978L41.7217 43.9297L49.4245 39.4617Z" fill="#FA693A"/>
<path d="M49.417 48.3831L49.4086 57.3046L41.6973 52.8512L41.7058 43.9297L49.417 48.3831Z" fill="#AD4929"/>
<path d="M49.3516 48.383L57.0629 43.9297L57.0713 52.8511L49.3601 57.3045L49.3516 48.383Z" fill="#CF5830"/>
<path d="M41.8093 43.8464L49.5121 48.3145L41.8093 52.7825L34.1064 48.3145L41.8093 43.8464Z" fill="#FA693A"/>
<path d="M41.8017 52.7681L41.7933 61.6895L34.082 57.2361L34.0904 48.3147L41.8017 52.7681Z" fill="#AD4929"/>
<path d="M41.7363 52.7679L49.4475 48.3145L49.456 57.236L41.7447 61.6893L41.7363 52.7679Z" fill="#CF5830"/>
<path d="M57.0407 43.8464L64.7435 48.3145L57.0407 52.7825L49.3379 48.3145L57.0407 43.8464Z" fill="#FA693A"/>
<path d="M57.0333 52.7681L57.0248 61.6895L49.3135 57.2361L49.322 48.3147L57.0333 52.7681Z" fill="#AD4929"/>
<path d="M56.9678 52.7679L64.6791 48.3145L64.6875 57.236L56.9763 61.6893L56.9678 52.7679Z" fill="#CF5830"/>
<path d="M64.6559 48.2307L72.3588 52.6988L64.6559 57.1668L56.9531 52.6988L64.6559 48.2307Z" fill="#FA693A"/>
<path d="M64.6484 57.1524L64.6399 66.0738L56.9287 61.6204L56.9371 52.699L64.6484 57.1524Z" fill="#AD4929"/>
<path d="M64.583 57.1521L72.2942 52.6987L72.3027 61.6201L64.5914 66.0735L64.583 57.1521Z" fill="#CF5830"/>
<path d="M42.0407 0L49.7435 4.46805L42.0407 8.93611L34.3379 4.46805L42.0407 0Z" fill="#FA693A"/>
<path d="M42.0333 8.92165L42.0248 17.8431L34.3135 13.3897L34.322 4.46826L42.0333 8.92165Z" fill="#AD4929"/>
<path d="M41.9678 8.9214L49.6791 4.46802L49.6875 13.3894L41.9763 17.8428L41.9678 8.9214Z" fill="#CF5830"/>
<path d="M64.6559 65.7693L72.3588 70.2373L64.6559 74.7054L56.9531 70.2373L64.6559 65.7693Z" fill="#FA693A"/>
<path d="M64.6484 74.6907L64.6399 83.6122L56.9287 79.1588L56.9371 70.2373L64.6484 74.6907Z" fill="#AD4929"/>
<path d="M64.583 74.6907L72.2942 70.2373L72.3027 79.1587L64.5914 83.6121L64.583 74.6907Z" fill="#CF5830"/>
<path d="M57.0407 70.1541L64.7435 74.6221L57.0407 79.0902L49.3379 74.6221L57.0407 70.1541Z" fill="#FA693A"/>
<path d="M57.0333 79.0757L57.0248 87.9971L49.3135 83.5438L49.322 74.6223L57.0333 79.0757Z" fill="#AD4929"/>
<path d="M56.9678 79.0755L64.6791 74.6221L64.6875 83.5436L56.9763 87.997L56.9678 79.0755Z" fill="#CF5830"/>
<path d="M11.5788 61.3848L19.2816 65.8528L11.5788 70.3209L3.87598 65.8528L11.5788 61.3848Z" fill="#FA693A"/>
<path d="M11.5712 70.3062L11.5628 79.2277L3.85156 74.7743L3.86001 65.8528L11.5712 70.3062Z" fill="#AD4929"/>
<path d="M11.5059 70.3061L19.2172 65.8528L19.2256 74.7742L11.5144 79.2276L11.5059 70.3061Z" fill="#CF5830"/>
<path d="M18.9636 65.7693L26.6664 70.2373L18.9636 74.7054L11.2607 70.2373L18.9636 65.7693Z" fill="#FA693A"/>
<path d="M18.956 74.6907L18.9476 83.6122L11.2363 79.1588L11.2447 70.2373L18.956 74.6907Z" fill="#AD4929"/>
<path d="M18.8906 74.6907L26.6018 70.2373L26.6103 79.1587L18.899 83.6121L18.8906 74.6907Z" fill="#CF5830"/>
<path d="M26.5788 70.1541L34.2816 74.6221L26.5788 79.0902L18.876 74.6221L26.5788 70.1541Z" fill="#FA693A"/>
<path d="M26.5713 79.0757L26.5629 87.9971L18.8516 83.5438L18.8601 74.6223L26.5713 79.0757Z" fill="#AD4929"/>
<path d="M26.5059 79.0755L34.2172 74.6221L34.2256 83.5436L26.5144 87.997L26.5059 79.0755Z" fill="#CF5830"/>
<path d="M34.194 74.5383L41.8969 79.0064L34.194 83.4744L26.4912 79.0064L34.194 74.5383Z" fill="#FA693A"/>
<path d="M34.1865 83.46L34.178 92.3814L26.4668 87.928L26.4752 79.0066L34.1865 83.46Z" fill="#AD4929"/>
<path d="M34.1211 83.4597L41.8324 79.0063L41.8409 87.9278L34.1296 92.3811L34.1211 83.4597Z" fill="#CF5830"/>
<path d="M49.4245 74.5383L57.1273 79.0064L49.4245 83.4744L41.7217 79.0064L49.4245 74.5383Z" fill="#FA693A"/>
<path d="M49.417 83.46L49.4086 92.3814L41.6973 87.928L41.7058 79.0066L49.417 83.46Z" fill="#AD4929"/>
<path d="M49.3516 83.4597L57.0629 79.0063L57.0713 87.9278L49.3601 92.3811L49.3516 83.4597Z" fill="#CF5830"/>
<path d="M11.5788 52.6155L19.2816 57.0835L11.5788 61.5516L3.87598 57.0835L11.5788 52.6155Z" fill="#FA693A"/>
<path d="M11.5712 61.5369L11.5628 70.4584L3.85156 66.005L3.86001 57.0835L11.5712 61.5369Z" fill="#AD4929"/>
<path d="M11.5059 61.5369L19.2172 57.0835L19.2256 66.0049L11.5144 70.4583L11.5059 61.5369Z" fill="#CF5830"/>
<path d="M11.5788 43.8464L19.2816 48.3145L11.5788 52.7825L3.87598 48.3145L11.5788 43.8464Z" fill="#FA693A"/>
<path d="M11.5712 52.7681L11.5628 61.6895L3.85156 57.2361L3.86001 48.3147L11.5712 52.7681Z" fill="#AD4929"/>
<path d="M11.5059 52.7679L19.2172 48.3145L19.2256 57.236L11.5144 61.6893L11.5059 52.7679Z" fill="#CF5830"/>
<path d="M11.5788 35.0769L19.2816 39.545L11.5788 44.013L3.87598 39.545L11.5788 35.0769Z" fill="#FA693A"/>
<path d="M11.5712 43.9985L11.5628 52.92L3.85156 48.4666L3.86001 39.5452L11.5712 43.9985Z" fill="#AD4929"/>
<path d="M11.5059 43.9983L19.2172 39.5449L19.2256 48.4663L11.5144 52.9197L11.5059 43.9983Z" fill="#CF5830"/>
<path d="M11.5788 26.3079L19.2816 30.7759L11.5788 35.244L3.87598 30.7759L11.5788 26.3079Z" fill="#FA693A"/>
<path d="M11.5712 35.2293L11.5628 44.1507L3.85156 39.6974L3.86001 30.7759L11.5712 35.2293Z" fill="#AD4929"/>
<path d="M11.5059 35.2293L19.2172 30.7759L19.2256 39.6974L11.5144 44.1508L11.5059 35.2293Z" fill="#CF5830"/>
<path d="M34.4245 4.38477L42.1273 8.85282L34.4245 13.3209L26.7217 8.85282L34.4245 4.38477Z" fill="#FA693A"/>
<path d="M34.417 13.3064L34.4086 22.2279L26.6973 17.7745L26.7058 8.85303L34.417 13.3064Z" fill="#AD4929"/>
<path d="M34.3516 13.3061L42.0629 8.85278L42.0713 17.7742L34.3601 22.2276L34.3516 13.3061Z" fill="#CF5830"/>
<path d="M26.8093 8.76929L34.5121 13.2373L26.8093 17.7054L19.1064 13.2373L26.8093 8.76929Z" fill="#FA693A"/>
<path d="M26.8017 17.6907L26.7933 26.6122L19.082 22.1588L19.0904 13.2373L26.8017 17.6907Z" fill="#AD4929"/>
<path d="M26.7363 17.6907L34.4475 13.2373L34.456 22.1587L26.7447 26.6121L26.7363 17.6907Z" fill="#CF5830"/>
<path d="M19.194 13.1538L26.8969 17.6219L19.194 22.0899L11.4912 17.6219L19.194 13.1538Z" fill="#FA693A"/>
<path d="M19.1865 22.0755L19.178 30.9969L11.4668 26.5435L11.4752 17.6221L19.1865 22.0755Z" fill="#AD4929"/>
<path d="M19.1211 22.0752L26.8324 17.6218L26.8409 26.5432L19.1296 30.9966L19.1211 22.0752Z" fill="#CF5830"/>
<path d="M11.5788 17.5386L19.2816 22.0066L11.5788 26.4747L3.87598 22.0066L11.5788 17.5386Z" fill="#FA693A"/>
<path d="M11.5712 26.46L11.5628 35.3815L3.85156 30.9281L3.86001 22.0066L11.5712 26.46Z" fill="#AD4929"/>
<path d="M11.5059 26.4599L19.2172 22.0066L19.2256 30.928L11.5144 35.3814L11.5059 26.4599Z" fill="#CF5830"/>
<path d="M49.6559 4.38477L57.3588 8.85282L49.6559 13.3209L41.9531 8.85282L49.6559 4.38477Z" fill="#FA693A"/>
<path d="M49.6484 13.3064L49.6399 22.2279L41.9287 17.7745L41.9371 8.85303L49.6484 13.3064Z" fill="#AD4929"/>
<path d="M49.583 13.3061L57.2942 8.85278L57.3027 17.7742L49.5914 22.2276L49.583 13.3061Z" fill="#CF5830"/>
<path d="M57.2712 8.76929L64.974 13.2373L57.2712 17.7054L49.5684 13.2373L57.2712 8.76929Z" fill="#FA693A"/>
<path d="M57.2636 17.6907L57.2552 26.6122L49.5439 22.1588L49.5524 13.2373L57.2636 17.6907Z" fill="#AD4929"/>
<path d="M57.1982 17.6907L64.9095 13.2373L64.9179 22.1587L57.2066 26.6121L57.1982 17.6907Z" fill="#CF5830"/>
<path d="M64.8864 13.1538L72.5892 17.6219L64.8864 22.0899L57.1836 17.6219L64.8864 13.1538Z" fill="#FA693A"/>
<path d="M64.879 22.0755L64.8705 30.9969L57.1592 26.5435L57.1677 17.6221L64.879 22.0755Z" fill="#AD4929"/>
<path d="M64.8135 22.0752L72.5248 17.6218L72.5332 26.5432L64.822 30.9966L64.8135 22.0752Z" fill="#CF5830"/>
<path d="M72.5017 17.5386L80.2045 22.0066L72.5017 26.4747L64.7988 22.0066L72.5017 17.5386Z" fill="#FA693A"/>
<path d="M72.4941 26.46L72.4856 35.3815L64.7744 30.9281L64.7828 22.0066L72.4941 26.46Z" fill="#AD4929"/>
<path d="M72.4287 26.4599L80.1399 22.0066L80.1484 30.928L72.4371 35.3814L72.4287 26.4599Z" fill="#5A28AD"/>
<path d="M41.8093 78.9231L49.5121 83.3911L41.8093 87.8592L34.1064 83.3911L41.8093 78.9231Z" fill="#FA693A"/>
<path d="M41.8017 87.8447L41.7933 96.7662L34.082 92.3128L34.0904 83.3914L41.8017 87.8447Z" fill="#AD4929"/>
<path d="M41.7363 87.8445L49.4475 83.3911L49.456 92.3125L41.7447 96.7659L41.7363 87.8445Z" fill="#CF5830"/>
<path d="M72.2712 52.6155L79.974 57.0835L72.2712 61.5516L64.5684 57.0835L72.2712 52.6155Z" fill="#FA693A"/>
<path d="M72.2636 61.5369L72.2552 70.4584L64.5439 66.005L64.5524 57.0835L72.2636 61.5369Z" fill="#AD4929"/>
<path d="M72.1982 61.5369L79.9095 57.0835L79.9179 66.0049L72.2066 70.4583L72.1982 61.5369Z" fill="#5A28AD"/>
<path d="M95.8799 43.6165C95.8799 42.149 96.2567 40.8203 97.0103 39.6303C97.7771 38.4272 98.7951 37.4687 100.064 36.7548C101.334 36.0408 102.742 35.6838 104.289 35.6838H117.635V39.8485H104.289C103.125 39.8485 102.127 40.2187 101.294 40.9591C100.474 41.6862 100.064 42.5654 100.064 43.5967V55.9717C100.064 57.0029 100.474 57.8887 101.294 58.6291C102.127 59.3563 103.125 59.7199 104.289 59.7199H110.892C112.069 59.7199 113.067 59.3563 113.887 58.6291C114.707 57.8887 115.117 57.0029 115.117 55.9717V52.283H107.462V48.1183H119.301V55.9518C119.301 57.4062 118.924 58.7349 118.171 59.938C117.417 61.1411 116.399 62.0997 115.117 62.8136C113.847 63.5276 112.439 63.8845 110.892 63.8845H104.289C102.742 63.8845 101.334 63.5276 100.064 62.8136C98.7951 62.0997 97.7771 61.1411 97.0103 59.938C96.2567 58.7349 95.8799 57.4062 95.8799 55.9518V43.6165Z" fill="#F2F2F2"/>
<path d="M123.882 50.7163C123.882 49.3545 124.213 48.1183 124.874 47.0077C125.548 45.8972 126.447 45.0114 127.571 44.3503C128.695 43.676 129.938 43.3389 131.299 43.3389H142.762V63.8845H138.578V47.5234H131.299C130.414 47.5234 129.653 47.8407 129.019 48.4753C128.384 49.0967 128.067 49.8569 128.067 50.7559V56.4278C128.067 57.3268 128.384 58.1003 129.019 58.7481C129.653 59.3827 130.414 59.7 131.299 59.7H136.198V63.8845H131.299C129.938 63.8845 128.695 63.554 127.571 62.893C126.447 62.2187 125.548 61.3196 124.874 60.1958C124.213 59.072 123.882 57.8293 123.882 56.4675V50.7163Z" fill="#F2F2F2"/>
<path d="M147.522 47.5234C147.522 46.3731 147.932 45.3882 148.751 44.5684C149.571 43.7487 150.563 43.3389 151.726 43.3389H157.993C159.685 43.3389 161.073 43.8677 162.157 44.9254C163.215 43.8677 164.603 43.3389 166.322 43.3389H169.416C170.778 43.3389 172.02 43.676 173.144 44.3503C174.268 45.0114 175.16 45.9038 175.822 47.0276C176.496 48.1382 176.833 49.3743 176.833 50.7361V63.8845H172.668V50.7956C172.668 49.8833 172.351 49.1099 171.716 48.4753C171.082 47.8275 170.315 47.5035 169.416 47.5035H166.322C165.74 47.5035 165.245 47.6886 164.835 48.0588C164.425 48.4158 164.22 48.8521 164.22 49.3677V63.8845H160.035V49.3677C160.035 48.8521 159.837 48.4158 159.441 48.0588C159.044 47.6886 158.561 47.5035 157.993 47.5035H151.706V63.8845H147.522V47.5234Z" fill="#F2F2F2"/>
<path d="M181.117 37.7463C181.117 37.0324 181.368 36.4242 181.87 35.9218C182.373 35.4194 182.981 35.1682 183.695 35.1682C184.409 35.1682 185.017 35.4194 185.519 35.9218C186.022 36.4242 186.273 37.0324 186.273 37.7463C186.273 38.4603 186.022 39.0684 185.519 39.5709C185.017 40.0733 184.409 40.3245 183.695 40.3245C182.981 40.3245 182.373 40.0733 181.87 39.5709C181.368 39.0684 181.117 38.4603 181.117 37.7463ZM181.593 43.3389H185.797V63.8845H181.593V43.3389Z" fill="#F2F2F2"/>
<path d="M204.34 37.7463C204.34 37.0324 204.591 36.4242 205.093 35.9218C205.596 35.4194 206.204 35.1682 206.918 35.1682C207.632 35.1682 208.24 35.4194 208.742 35.9218C209.245 36.4242 209.496 37.0324 209.496 37.7463C209.496 38.4603 209.245 39.0684 208.742 39.5709C208.24 40.0733 207.632 40.3245 206.918 40.3245C206.204 40.3245 205.596 40.0733 205.093 39.5709C204.591 39.0684 204.34 38.4603 204.34 37.7463ZM190.556 41.5739C190.556 40.4897 190.821 39.5047 191.35 38.6189C191.892 37.7199 192.606 37.006 193.492 36.4771C194.391 35.9483 195.382 35.6838 196.466 35.6838H201.047V39.8485H196.466C195.99 39.8485 195.581 40.0204 195.237 40.3641C194.906 40.6947 194.741 41.0979 194.741 41.5739V43.3389H209.02V63.8845H204.815V47.5035H194.741V63.8845H190.556V41.5739Z" fill="#F2F2F2"/>
<path d="M213.68 50.7559C213.68 49.3942 214.024 48.1514 214.712 47.0276C215.399 45.9038 216.318 45.0114 217.468 44.3503C218.618 43.676 219.894 43.3389 221.296 43.3389H232.858V47.5234H221.296C220.357 47.5234 219.55 47.8473 218.876 48.4951C218.202 49.1297 217.865 49.9032 217.865 50.8154V56.3881C217.865 57.3004 218.195 58.0805 218.856 58.7283C219.531 59.3761 220.344 59.7 221.296 59.7H232.858V63.8845H221.296C219.894 63.8845 218.618 63.5474 217.468 62.8731C216.318 62.1988 215.399 61.2998 214.712 60.176C214.024 59.039 213.68 57.7896 213.68 56.4278V50.7559Z" fill="#F2F2F2"/>
<path d="M237.24 50.7163C237.24 49.3545 237.571 48.1183 238.232 47.0077C238.906 45.8972 239.805 45.0114 240.929 44.3503C242.053 43.676 243.296 43.3389 244.657 43.3389H256.12V63.8845H251.936V47.5234H244.657C243.772 47.5234 243.011 47.8407 242.377 48.4753C241.742 49.0967 241.425 49.8569 241.425 50.7559V56.4278C241.425 57.3268 241.742 58.1003 242.377 58.7481C243.011 59.3827 243.772 59.7 244.657 59.7H249.556V63.8845H244.657C243.296 63.8845 242.053 63.554 240.929 62.893C239.805 62.2187 238.906 61.3196 238.232 60.1958C237.571 59.072 237.24 57.8293 237.24 56.4675V50.7163Z" fill="#F2F2F2"/>
<path d="M269.388 35.6838H274.603L284.698 63.8845H280.236L277.162 55.3966H269.288L270.796 51.2319H275.654L272.005 41.1574L263.755 63.8845H259.293L269.388 35.6838Z" fill="#F2F2F2"/>
<path d="M287.415 37.7463C287.415 37.0324 287.666 36.4242 288.168 35.9218C288.671 35.4194 289.279 35.1682 289.993 35.1682C290.707 35.1682 291.315 35.4194 291.817 35.9218C292.32 36.4242 292.571 37.0324 292.571 37.7463C292.571 38.4603 292.32 39.0684 291.817 39.5709C291.315 40.0733 290.707 40.3245 289.993 40.3245C289.279 40.3245 288.671 40.0733 288.168 39.5709C287.666 39.0684 287.415 38.4603 287.415 37.7463ZM287.891 43.3389H292.095V63.8845H287.891V43.3389Z" fill="#F2F2F2"/>
</svg>
